{
  "accessors": [
    {
      "bufferView": 2,
      "componentType": 5126,
      "count": 65532,
      "max": [
        1.2547389268875122,
        0.26326119899749756,
        1.2527055740356445
      ],
      "min": [
        -1.2618906497955322,
        -0.26326119899749756,
        -1.26191246509552
      ],
      "type": "VEC3"
    },
    {
      "bufferView": 2,
      "byteOffset": 786384,
      "componentType": 5126,
      "count": 65532,
      "max": [
        0.9999982714653015,
        0.9999173879623413,
        0.9999997019767761
      ],
      "min": [
        -0.9999997019767761,
        -0.9999163746833801,
        -0.999999463558197
      ],
      "type": "VEC3"
    },
    {
      "bufferView": 1,
      "componentType": 5126,
      "count": 65532,
      "max": [
        0.9975016117095947,
        0.8198547959327698
      ],
      "min": [
        0.0009765625,
        0.0009765625
      ],
      "type": "VEC2"
    },
    {
      "bufferView": 0,
      "componentType": 5125,
      "count": 343506,
      "type": "SCALAR"
    },
    {
      "bufferView": 2,
      "byteOffset": 1572768,
      "componentType": 5126,
      "count": 16885,
      "max": [
        1.2618906497955322,
        0.26322412490844727,
        1.2643285989761353
      ],
      "min": [
        -1.2403738498687744,
        -0.26322412490844727,
        -1.2643285989761353
      ],
      "type": "VEC3"
    },
    {
      "bufferView": 2,
      "byteOffset": 1775388,
      "componentType": 5126,
      "count": 16885,
      "max": [
        0.999993622303009,
        0.9999117851257324,
        0.9999822974205017
      ],
      "min": [
        -0.9999984502792358,
        -0.9999139904975891,
        -0.9999764561653137
      ],
      "type": "VEC3"
    },
    {
      "bufferView": 1,
      "byteOffset": 524256,
      "componentType": 5126,
      "count": 16885,
      "max": [
        0.9975016117095947,
        0.7964172959327698
      ],
      "min": [
        0.0009765625,
        0.1259765625
      ],
      "type": "VEC2"
    },
    {
      "bufferView": 0,
      "byteOffset": 1374024,
      "componentType": 5125,
      "count": 88494,
      "type": "SCALAR"
    }
  ],
  "asset": {
    "extras": {
      "author": "famousandfaded (https://sketchfab.com/famousandfaded)",
      "license": "CC-BY-SA-4.0 (http://creativecommons.org/licenses/by-sa/4.0/)",
      "source": "https://sketchfab.com/3d-models/copper-wire-coil-aa0675b01e7447ffa5402aebc8f08c36",
      "title": "Copper wire coil"
    },
    "generator": "Sketchfab-13.31.0",
    "version": "2.0"
  },
  "bufferViews": [
    {
      "buffer": 0,
      "byteLength": 1728000,
      "name": "floatBufferViews",
      "target": 34963
    },
    {
      "buffer": 0,
      "byteLength": 659336,
      "byteOffset": 1728000,
      "byteStride": 8,
      "name": "floatBufferViews",
      "target": 34962
    },
    {
      "buffer": 0,
      "byteLength": 1978008,
      "byteOffset": 2387336,
      "byteStride": 12,
      "name": "floatBufferViews",
      "target": 34962
    }
  ],
  "buffers": [
    {
      "byteLength": 4365344,
      "uri": "scene.bin"
    }
  ],
  "images": [
    {
      "uri": "textures/matcopper_material_baseColor.png"
    },
    {
      "uri": "textures/matcopper_material_metallicRoughness.png"
    }
  ],
  "materials": [
    {
      "name": "matcopper_material",
      "occlusionTexture": {
        "index": 1,
        "strength": 0.5
      },
      "pbrMetallicRoughness": {
        "baseColorTexture": {
          "index": 0
        },
        "metallicRoughnessTexture": {
          "index": 1
        }
      }
    }
  ],
  "meshes": [
    {
      "name": "Object_0",
      "primitives": [
        {
          "attributes": {
            "NORMAL": 1,
            "POSITION": 0,
            "TEXCOORD_0": 2
          },
          "indices": 3,
          "material": 0,
          "mode": 4
        }
      ]
    },
    {
      "name": "Object_1",
      "primitives": [
        {
          "attributes": {
            "NORMAL": 5,
            "POSITION": 4,
            "TEXCOORD_0": 6
          },
          "indices": 7,
          "material": 0,
          "mode": 4
        }
      ]
    }
  ],
  "nodes": [
    {
      "children": [
        1
      ],
      "matrix": [
        0.06666667014360428,
        0.0,
        0.0,
        0.0,
        0.0,
        1.4802974433703992e-17,
        -0.06666667014360428,
        0.0,
        0.0,
        0.06666667014360428,
        1.4802974433703992e-17,
        0.0,
        0.0,
        0.0,
        0.0,
        1.0
      ],
      "name": "Sketchfab_model"
    },
    {
      "children": [
        2,
        3
      ],
      "name": "Coil.obj.cleaner.materialmerger.gles"
    },
    {
      "mesh": 0,
      "name": "Object_2"
    },
    {
      "mesh": 1,
      "name": "Object_3"
    }
  ],
  "samplers": [
    {
      "magFilter": 9729,
      "minFilter": 9987,
      "wrapS": 10497,
      "wrapT": 10497
    }
  ],
  "scene": 0,
  "scenes": [
    {
      "name": "Sketchfab_Scene",
      "nodes": [
        0
      ]
    }
  ],
  "textures": [
    {
      "sampler": 0,
      "source": 0
    },
    {
      "sampler": 0,
      "source": 1
    }
  ]
}
